<svg width="20" height="20" viewBox="0 0 12 12" fill="none" xmlns="http://www.w3.org/2000/svg">
<path d="M6.21973 9.06757L4.41973 9.91567C4.13401 10.0492 3.86258 10.0237 3.60544 9.83934C3.3483 9.65496 3.21973 9.39377 3.21973 9.05579V2.94234C3.21973 2.6832 3.30373 2.46143 3.47173 2.27705C3.63973 2.09266 3.84144 2.00031 4.07687 2H8.36258C8.5983 2 8.80015 2.09235 8.96815 2.27705C9.13615 2.46175 9.22001 2.68351 9.21973 2.94234V9.05579C9.21973 9.39346 9.09115 9.65465 8.83401 9.83934C8.57687 10.024 8.30544 10.0495 8.01973 9.91567L6.21973 9.06757ZM6.21973 8.03099L8.36258 9.04401V2.94234H4.07687V9.04401L6.21973 8.03099ZM6.21973 2.94234H4.07687H8.36258H6.21973Z" fill="#303030"/>
</svg>
