<svg width="18" height="18" viewBox="0 0 12 12" fill="none" xmlns="http://www.w3.org/2000/svg">
<path d="M3.84473 3.5C3.84473 3.40054 3.88424 3.30516 3.95456 3.23483C4.02489 3.16451 4.12027 3.125 4.21973 3.125H8.21973C8.31918 3.125 8.41457 3.16451 8.48489 3.23483C8.55522 3.30516 8.59473 3.40054 8.59473 3.5C8.59473 3.59946 8.55522 3.69484 8.48489 3.76517C8.41457 3.83549 8.31918 3.875 8.21973 3.875H4.21973C4.12027 3.875 4.02489 3.83549 3.95456 3.76517C3.88424 3.69484 3.84473 3.59946 3.84473 3.5ZM4.21973 4.875C4.12027 4.875 4.02489 4.91451 3.95456 4.98484C3.88424 5.05516 3.84473 5.15054 3.84473 5.25C3.84473 5.34946 3.88424 5.44484 3.95456 5.51516C4.02489 5.58549 4.12027 5.625 4.21973 5.625H6.71973C6.81918 5.625 6.91457 5.58549 6.98489 5.51516C7.05522 5.44484 7.09473 5.34946 7.09473 5.25C7.09473 5.15054 7.05522 5.05516 6.98489 4.98484C6.91457 4.91451 6.81918 4.875 6.71973 4.875H4.21973Z" fill="#303030"/>
<path fill-rule="evenodd" clip-rule="evenodd" d="M5.19223 0.625C4.50873 0.625 3.95723 0.625 3.52373 0.6835C3.07373 0.7435 2.69473 0.8735 2.39373 1.174C2.09273 1.475 1.96373 1.854 1.90323 2.304C1.84473 2.7375 1.84473 3.289 1.84473 3.9725V8.0275C1.84473 8.711 1.84473 9.2625 1.90323 9.696C1.96323 10.146 2.09323 10.525 2.39373 10.826C2.69473 11.127 3.07373 11.256 3.52373 11.317C3.95723 11.375 4.50873 11.375 5.19223 11.375H7.24723C7.93073 11.375 8.48223 11.375 8.91573 11.317C9.36573 11.256 9.74473 11.127 10.0457 10.826C10.3467 10.525 10.4757 10.146 10.5367 9.696C10.5947 9.2625 10.5947 8.711 10.5947 8.0275V3.9725C10.5947 3.289 10.5947 2.7375 10.5367 2.304C10.4757 1.854 10.3467 1.475 10.0457 1.174C9.74473 0.873 9.36573 0.744 8.91573 0.6835C8.48223 0.625 7.93073 0.625 7.24723 0.625H5.19223ZM2.92473 1.7045C3.06323 1.566 3.25723 1.476 3.62473 1.4265C4.00173 1.376 4.50273 1.375 5.22023 1.375H7.22023C7.93773 1.375 8.43823 1.376 8.81623 1.4265C9.18323 1.476 9.37723 1.5665 9.51573 1.7045C9.65423 1.843 9.74423 2.037 9.79373 2.4045C9.84423 2.7815 9.84523 3.2825 9.84523 4V7.625H4.11073C3.70173 7.625 3.42273 7.625 3.18323 7.689C2.97279 7.7459 2.77372 7.83858 2.59473 7.963V4C2.59473 3.2825 2.59573 2.7815 2.64623 2.404C2.69573 2.037 2.78673 1.843 2.92473 1.7045ZM2.60823 9.1245C2.61573 9.3015 2.62773 9.457 2.64623 9.596C2.69573 9.963 2.78623 10.157 2.92423 10.2955C3.06273 10.434 3.25673 10.524 3.62423 10.5735C4.00123 10.624 4.50223 10.625 5.21973 10.625H7.21973C7.93723 10.625 8.43773 10.624 8.81573 10.5735C9.18273 10.524 9.37673 10.4335 9.51523 10.2955C9.65373 10.157 9.74373 9.963 9.79323 9.5955C9.83473 9.288 9.84273 8.898 9.84423 8.375H4.16873C3.67973 8.375 3.50873 8.378 3.37723 8.4135C3.201 8.46077 3.03891 8.55019 2.90494 8.67406C2.77097 8.79792 2.66914 8.95251 2.60823 9.1245Z" fill="#303030"/>
</svg>
