<svg width="20" height="20" viewBox="0 0 13 13" fill="none" xmlns="http://www.w3.org/2000/svg">
<path d="M7.71973 5.11877L7.22673 5.03677C7.21482 5.10837 7.21865 5.1817 7.23794 5.25167C7.25723 5.32164 7.29153 5.38657 7.33844 5.44195C7.38535 5.49733 7.44376 5.54184 7.5096 5.57237C7.57544 5.60291 7.64715 5.61874 7.71973 5.61877V5.11877ZM2.21973 5.11877V4.61877C2.08712 4.61877 1.95994 4.67145 1.86617 4.76522C1.7724 4.85899 1.71973 4.98617 1.71973 5.11877H2.21973ZM3.21973 10.6188H8.89973V9.61877H3.21973V10.6188ZM9.49973 4.61877H7.71973V5.61877H9.49973V4.61877ZM8.21323 5.20077L8.61573 2.78327L7.62973 2.61877L7.22673 5.03677L8.21323 5.20077ZM7.62973 1.61877H7.52273V2.61877H7.62973V1.61877ZM5.85823 2.50927L4.60123 4.39627L5.43323 4.95127L6.69123 3.06427L5.85823 2.50927ZM4.18473 4.61877H2.21973V5.61877H4.18473V4.61877ZM1.71973 5.11877V9.11877H2.71973V5.11877H1.71973ZM10.3707 9.41277L10.9707 6.41277L9.99073 6.21677L9.39073 9.21677L10.3707 9.41277ZM4.60123 4.39627C4.55555 4.46473 4.49319 4.52086 4.42062 4.55967C4.34805 4.59849 4.26702 4.61879 4.18473 4.61877V5.61877C4.43166 5.61876 4.67477 5.55778 4.89248 5.44125C5.11019 5.32472 5.29576 5.15624 5.43273 4.95077L4.60123 4.39627ZM8.61573 2.78327C8.63961 2.64004 8.63202 2.49333 8.59348 2.35333C8.55493 2.21333 8.48636 2.0834 8.39252 1.97258C8.29869 1.86176 8.18185 1.77271 8.05012 1.71161C7.91839 1.65051 7.77494 1.61883 7.62973 1.61877V2.61877L8.61573 2.78327ZM9.49973 5.61877C9.57371 5.61875 9.64679 5.63514 9.71367 5.66677C9.78056 5.6984 9.83959 5.74447 9.88651 5.80168C9.93344 5.85889 9.96708 5.92579 9.98501 5.99757C10.0029 6.06936 10.0052 6.14422 9.99073 6.21677L10.9707 6.41277C11.0142 6.1952 11.0089 5.97069 10.9551 5.75541C10.9014 5.54014 10.8006 5.33948 10.6599 5.16788C10.5193 4.99628 10.3423 4.85802 10.1417 4.76307C9.94121 4.66812 9.72211 4.61883 9.50023 4.61877L9.49973 5.61877ZM8.89973 10.6188C9.24654 10.6188 9.58264 10.4986 9.85084 10.2788C10.119 10.0589 10.3028 9.75286 10.3707 9.41277L9.39073 9.21677C9.36805 9.33025 9.30671 9.43234 9.21717 9.50565C9.12764 9.57896 9.01544 9.61894 8.89973 9.61877V10.6188ZM7.52273 1.61877C7.1935 1.61878 6.86936 1.70006 6.57908 1.85541C6.28881 2.01075 6.04087 2.23535 5.85823 2.50927L6.69123 3.06427C6.78252 2.92727 6.90573 2.81492 7.05087 2.7372C7.19601 2.65948 7.35809 2.6188 7.52273 2.61877V1.61877ZM3.21973 9.61877C3.08712 9.61877 2.95994 9.5661 2.86617 9.47233C2.77241 9.37856 2.71973 9.25138 2.71973 9.11877H1.71973C1.71973 9.5166 1.87776 9.89813 2.15907 10.1794C2.44037 10.4607 2.8219 10.6188 3.21973 10.6188V9.61877Z" fill="#303030"/>
<path d="M4.21973 5.11877V10.1188" stroke="#303030"/>
</svg>